# Blender v2.69 (sub 0) OBJ File: 'temp.blend'
# www.blender.org
mtllib temp.mtl
o Cube_CubeMesh
v 1.000000 -1.000000 -1.000000
v 1.000000 -1.000000 1.000000
v -1.000000 -1.000000 1.000000
v -1.000000 -1.000000 -1.000000
v 1.000000 1.000000 -0.999999
v 0.999999 1.000000 1.000001
v -1.000000 1.000000 1.000000
v -1.000000 1.000000 -1.000000
v 1.000000 3.000000 -0.999999
v 0.999999 3.000000 1.000001
v -1.000000 3.000000 1.000000
v -1.000000 3.000000 -1.000000
v 3.000000 1.000000 -0.999998
v 2.999999 1.000000 1.000002
v 3.000000 3.000000 -0.999998
v 2.999999 3.000000 1.000002
v 1.000000 -1.000000 -1.000000
v 1.000000 -1.000000 -1.000000
v 1.000000 -1.000000 1.000000
v 1.000000 -1.000000 1.000000
v -1.000000 -1.000000 -1.000000
v -1.000000 -1.000000 -1.000000
v 1.000000 1.000000 -0.999999
v 1.000000 1.000000 -0.999999
v -1.000000 -1.000000 1.000000
v -1.000000 -1.000000 1.000000
v 0.999999 1.000000 1.000001
v 0.999999 1.000000 1.000001
v -1.000000 1.000000 1.000000
v -1.000000 1.000000 -1.000000
v 1.000000 3.000000 -0.999999
v -1.000000 3.000000 -1.000000
v -1.000000 3.000000 -1.000000
v 0.999999 3.000000 1.000001
v -1.000000 3.000000 1.000000
v -1.000000 3.000000 1.000000
v 3.000000 1.000000 -0.999998
v 3.000000 1.000000 -0.999998
v 2.999999 1.000000 1.000002
v 2.999999 1.000000 1.000002
v 3.000000 3.000000 -0.999998
v 3.000000 3.000000 -0.999998
v 2.999999 3.000000 1.000002
v 2.999999 3.000000 1.000002
vt 0.334837 0.818761
vt 0.334837 0.990348
vt 0.163250 0.990348
vt 0.283224 0.404554
vt 0.404554 0.283224
vt 0.525885 0.404554
vt 0.506424 0.818761
vt 0.404554 0.040563
vt 0.525885 0.161893
vt 0.283224 0.161893
vt 0.161893 0.525885
vt 0.040563 0.404554
vt 0.525884 0.647216
vt 0.404554 0.525885
vt 0.647215 0.525885
vt 0.647215 0.283224
vt 0.283223 0.647215
vt 0.161893 0.768546
vt 0.678011 0.990348
vt 0.678011 0.818761
vt 0.849599 0.818761
vt 0.647215 0.040563
vt 0.768546 0.647216
vt 0.506424 0.990348
vt 0.163250 0.818761
vt 0.161893 0.283224
vt 0.040563 0.647215
vt 0.849599 0.990348
vt 0.768546 0.161893
vt 0.647215 0.768546
vn 0.000000 -1.000000 0.000000
vn -1.000000 -0.000000 -0.000000
vn 1.000000 -0.000000 0.000000
vn 0.000000 -0.000000 1.000000
vn 0.000000 0.000000 -1.000000
vn 0.000000 1.000000 -0.000000
vn -0.000001 0.000000 1.000000
vn 0.000001 0.000000 -1.000000
vn 1.000000 0.000000 0.000001
usemtl Diffuse
s 1
f 1/1/1 2/2/1 3/3/1
f 30/4/2 7/5/2 35/6/2
f 17/1/3 5/7/3 20/2/3
f 19/8/4 6/9/4 26/10/4
f 25/10/2 7/5/2 30/4/2
f 24/11/5 18/12/5 8/4/5
f 9/13/6 12/14/6 10/15/6
f 29/5/4 6/9/4 34/16/7
f 24/11/5 8/4/5 33/14/5
f 24/11/5 31/17/5 41/18/8
f 14/19/9 13/20/9 15/21/9
f 34/16/7 6/9/4 39/22/7
f 9/13/6 10/15/6 43/23/6
f 27/24/1 23/7/1 40/19/1
f 4/25/1 1/1/1 3/3/1
f 32/14/2 30/4/2 35/6/2
f 18/12/5 21/26/5 8/4/5
f 12/14/6 11/6/6 10/15/6
f 22/26/2 25/10/2 30/4/2
f 23/7/1 37/20/1 40/19/1
f 5/7/3 28/24/9 20/2/3
f 36/6/4 29/5/4 34/16/7
f 31/17/5 24/11/5 33/14/5
f 38/27/8 24/11/5 41/18/8
f 16/28/9 14/19/9 15/21/9
f 44/29/4 34/16/7 39/22/7
f 42/30/6 9/13/6 43/23/6
f 6/9/4 29/5/4 26/10/4
